# xmcd
#
# Track frame offsets:
#	187
#	28457
#	60882
#	93390
#	108225
#	123907
#	137295
#	156455
#	176042
#	210160
#	232880
#	260647
#	293535
#	306530
#
# Disc length: 4316
#
# Revision: 2
# Processed by: cddbd v1.5.1PL0 Copyright (c) Steve Scherf et al.
# Submitted via: CDex 1.51
# Normalized: r0:DSETVAR1,TDELIM( - );r1:TRMNUM
#
DISCID=bc10da0e
DTITLE=Various Artist - Something Black
DYEAR=1992
DGENRE=Jazz
TTITLE0=Smut - Jack McDuff
TTITLE1=Stuffin' - Willis Jackson
TTITLE2=Two Bass Hit - Joe Dukes With Jack McDuff
TTITLE3=Parchman Farm - Mose Allison
TTITLE4=Aye Mama - Pucho and His Latin Soul Brothers
TTITLE5=Soul Sauce - Cal Tjader
TTITLE6=Jazz-A-Samba - Eddie"Lockjaw"Davis
TTITLE7=Something Black - Pucho and His Latin Soul Brothers
TTITLE8=Blue Odyssey - Houston Person
TTITLE9=Mama Told Me Not To Come - Maynard Parker
TTITLE10=One Hand - Maynard Parker
TTITLE11=No Way - Boogaloo Joe Jones
TTITLE12=Left In The Cold - Pucho and His Latin Soul Brothers
TTITLE13=Acid Funk Reprise - Sonny Stitt
EXTD=YEAR: 1992
EXTT0=
EXTT1=
EXTT2=
EXTT3=
EXTT4=
EXTT5=
EXTT6=
EXTT7=
EXTT8=
EXTT9=
EXTT10=
EXTT11=
EXTT12=
EXTT13=
PLAYORDER=
